<svg viewBox="0 0 64 64" xmlns="http://www.w3.org/2000/svg"><g fill="#231f20"><path d="m60 28a4 4 0 0 0 -3.86 3h-3.14a20.91 20.91 0 0 0 -2.3-8.62l2.8-1.61a3 3 0 0 0 1.94.73 3 3 0 0 0 2.56-4.5 3 3 0 0 0 -5.5.72 3.1 3.1 0 0 0 0 1.32l-2.8 1.61a21 21 0 0 0 -6.3-6.3l1.6-2.8a3.33 3.33 0 0 0 .54.07 3.47 3.47 0 0 0 .78-.1 3 3 0 1 0 -3.05-1l-1.62 2.79a20.83 20.83 0 0 0 -8.65-2.26v-3.19a4 4 0 1 0 -2 0v3.19a20.83 20.83 0 0 0 -8.61 2.3l-1.62-2.79a3 3 0 1 0 -3.05 1 3.47 3.47 0 0 0 .78.1 3.33 3.33 0 0 0 .54-.07l1.62 2.8a21 21 0 0 0 -6.3 6.3l-2.8-1.69a3.1 3.1 0 0 0 0-1.32 3 3 0 1 0 -4.4 3.38 3 3 0 0 0 1.49.4 3 3 0 0 0 1.94-.73l2.8 1.61a20.91 20.91 0 0 0 -2.34 8.66h-3.19a4 4 0 1 0 0 2h3.19a20.91 20.91 0 0 0 2.3 8.62l-2.79 1.61a3 3 0 1 0 1 3.05 3.1 3.1 0 0 0 0-1.32l2.8-1.61a21 21 0 0 0 6.3 6.3l-1.66 2.79a3.1 3.1 0 0 0 -1.32 0 3 3 0 1 0 3.05 1l1.62-2.79a20.83 20.83 0 0 0 8.65 2.35v3.19a4 4 0 1 0 2 0v-3.19a20.83 20.83 0 0 0 8.61-2.3l1.62 2.79a3 3 0 1 0 3.05-1 3.1 3.1 0 0 0 -1.32 0l-1.62-2.79a21 21 0 0 0 6.3-6.3l2.8 1.6a3.1 3.1 0 0 0 0 1.32 3 3 0 1 0 1-3.05l-2.79-1.61a20.91 20.91 0 0 0 2.35-8.66h3.19a4 4 0 1 0 3.81-5zm-5.58-9.76a1 1 0 1 1 1.46 1.13 1 1 0 0 1 -1.36-.37 1 1 0 0 1 -.1-.76zm-9.79-10.12a1 1 0 1 1 1.13 1.46 1 1 0 0 1 -.76-.1 1 1 0 0 1 -.37-1.36zm-26.39 1.46a1 1 0 1 1 1.13-1.46 1 1 0 0 1 -.37 1.36 1 1 0 0 1 -.76.1zm-10.12 9.79a1 1 0 1 1 1.46-1.13 1 1 0 0 1 -.1.76 1 1 0 0 1 -1.36.37zm1.46 26.39a1 1 0 1 1 -1.46-1.13 1 1 0 0 1 1.36.37 1 1 0 0 1 .1.76zm9.79 10.12a1 1 0 1 1 -1.13-1.46.78.78 0 0 1 .26 0 1 1 0 0 1 .87 1.5zm26.39-1.46a1 1 0 1 1 -1.13 1.46 1 1 0 0 1 .37-1.36 1 1 0 0 1 .5-.14.78.78 0 0 1 .26.04zm9.62-9.92a1 1 0 0 1 .5.13 1 1 0 1 1 -1.46 1.13 1 1 0 0 1 .1-.76 1 1 0 0 1 .86-.5zm-25.38-40.5a2 2 0 1 1 2 2 2 2 0 0 1 -2-2zm-26 30a2 2 0 1 1 2-2 2 2 0 0 1 -2 2zm30 26a2 2 0 1 1 -2-2 2 2 0 0 1 2 2zm8.34-12.08-1-1.7a1 1 0 0 0 -1.74 1l1 1.69a18.78 18.78 0 0 1 -17.22 0l1-1.69a1 1 0 0 0 -1.74-1l-1 1.7a19 19 0 0 1 -8.59-14.92h1.95a1 1 0 0 0 0-2h-1.95a19 19 0 0 1 8.61-14.92l1 1.7a1 1 0 0 0 1.37.36 1 1 0 0 0 .37-1.36l-1-1.69a18.78 18.78 0 0 1 17.22 0l-1 1.69a1 1 0 0 0 .38 1.36 1 1 0 0 0 1.37-.36l1-1.7a19 19 0 0 1 8.63 14.92h-2a1 1 0 0 0 0 2h2a19 19 0 0 1 -8.66 14.92zm17.66-13.92a2 2 0 1 1 2-2 2 2 0 0 1 -2 2z"/><path d="m28.5 21a4.5 4.5 0 1 0 4.5 4.5 4.51 4.51 0 0 0 -4.5-4.5zm0 7a2.5 2.5 0 1 1 2.5-2.5 2.5 2.5 0 0 1 -2.5 2.5z"/><path d="m36 36a4 4 0 1 0 4 4 4 4 0 0 0 -4-4zm0 6a2 2 0 1 1 2-2 2 2 0 0 1 -2 2z"/><path d="m40.5 24a3.5 3.5 0 1 0 3.5 3.5 3.5 3.5 0 0 0 -3.5-3.5zm0 5a1.5 1.5 0 1 1 1.5-1.5 1.5 1.5 0 0 1 -1.5 1.5z"/><path d="m23 33a3 3 0 1 0 3 3 3 3 0 0 0 -3-3zm0 4a1 1 0 1 1 1-1 1 1 0 0 1 -1 1z"/></g></svg>