<svg viewBox="0 0 64 64" xmlns="http://www.w3.org/2000/svg"><g fill="#231f20"><path d="m38 22a1 1 0 0 0 -1-1h-6v-6a1 1 0 0 0 -1-1h-4a1 1 0 0 0 -1 1v6h-6a1 1 0 0 0 -1 1v4a1 1 0 0 0 1 1h6v14a1 1 0 0 0 1 1h4a1 1 0 0 0 1-1v-14h6a1 1 0 0 0 1-1zm-2 3h-6a1 1 0 0 0 -1 1v14h-2v-14a1 1 0 0 0 -1-1h-6v-2h6a1 1 0 0 0 1-1v-6h2v6a1 1 0 0 0 1 1h6z"/><path d="m58 48h-1.06a8.13 8.13 0 0 0 -1.62-3.9l1.39-1.39a1 1 0 0 0 -1.42-1.42l-1.39 1.39a8.13 8.13 0 0 0 -3.9-1.62v-1.06a1 1 0 0 0 -2 0v1.06a8.13 8.13 0 0 0 -3.9 1.62l-1.39-1.39a1 1 0 0 0 -1.42 1.42l1.39 1.39a8.13 8.13 0 0 0 -1.62 3.9h-1.06a1 1 0 0 0 0 2h1.06a8.13 8.13 0 0 0 1.62 3.9l-1.39 1.39a1 1 0 0 0 0 1.42 1 1 0 0 0 1.42 0l1.39-1.39a8.13 8.13 0 0 0 3.9 1.62v1.06a1 1 0 0 0 2 0v-1.06a8.13 8.13 0 0 0 3.9-1.62l1.39 1.39a1 1 0 0 0 1.42 0 1 1 0 0 0 0-1.42l-1.39-1.39a8.13 8.13 0 0 0 1.62-3.9h1.06a1 1 0 0 0 0-2zm-13.24 5.24a5.86 5.86 0 0 1 -1.67-3.24 1 1 0 0 0 0-2 6 6 0 0 1 4.91-4.91 1 1 0 0 0 2 0 6 6 0 0 1 4.91 4.91 1 1 0 0 0 0 2 6 6 0 0 1 -4.91 4.91 1 1 0 0 0 -2 0 5.86 5.86 0 0 1 -3.24-1.67z"/><circle cx="52" cy="48" r="1"/><circle cx="49" cy="51" r="1"/><path d="m49 34c-.34 0-.67 0-1 0v-14a20 20 0 0 0 -40 0v32h-2a1 1 0 0 0 -1 1v5h-.88a4.13 4.13 0 0 0 -4.12 4.12v.88a1 1 0 0 0 1 1h48a15 15 0 0 0 0-30zm-39-14a18 18 0 0 1 18-18 18 18 0 0 1 18 18v14.3a14.8 14.8 0 0 0 -4 1.44v-15.74a14 14 0 0 0 -28 0v27a1 1 0 0 0 1 1h19v1a14.82 14.82 0 0 0 .3 3h-24.3zm24.3 26h-18.3v-26a12 12 0 0 1 24 0v17a15.08 15.08 0 0 0 -5.7 9zm-27.3 8h27.86a15.09 15.09 0 0 0 2.14 4h-30zm-5 8a2.13 2.13 0 0 1 2.12-2h34.7a14.37 14.37 0 0 0 2.71 2zm47 0a13 13 0 0 1 -9.06-3.69v-.05a13 13 0 0 1 1.64-19.89l.18-.14a13 13 0 1 1 7.24 23.77z"/><circle cx="46.5" cy="47.5" r="1.5"/></g></svg>