<?xml version="1.0" ?><svg viewBox="0 0 64 64" xmlns="http://www.w3.org/2000/svg"><g id="facemask-virus-covid19-corona-mask"><path d="M51.374,19.69,41.356,17.782a50.022,50.022,0,0,0-18.712,0L12.626,19.69A2,2,0,0,0,11,21.655v20.69a2,2,0,0,0,1.626,1.965l10.018,1.908a50.022,50.022,0,0,0,18.712,0L51.374,44.31A2,2,0,0,0,53,42.345V21.655A2,2,0,0,0,51.374,19.69Z" style="fill:#F3F6FB"/><path d="M54,22.06v-.41a3.007,3.007,0,0,0-2.44-2.94L41.54,16.8a50.6,50.6,0,0,0-19.08,0L12.44,18.71A3.007,3.007,0,0,0,10,21.65v.41A9.016,9.016,0,0,0,2,31v2a9.016,9.016,0,0,0,8,8.94v.41a3.007,3.007,0,0,0,2.44,2.94L22.46,47.2a51.11,51.11,0,0,0,9.54.9,51.11,51.11,0,0,0,9.54-.9l10.02-1.91A3.007,3.007,0,0,0,54,42.35v-.41A9.016,9.016,0,0,0,62,33V31A9.016,9.016,0,0,0,54,22.06ZM10,39.93A7.013,7.013,0,0,1,4,33V31a7.013,7.013,0,0,1,6-6.93Zm42,2.42a1,1,0,0,1-.81.98L41.17,45.24a49.178,49.178,0,0,1-18.34,0L12.81,43.33a1,1,0,0,1-.81-.98V21.65a1,1,0,0,1,.81-.98l10.02-1.91a49.319,49.319,0,0,1,18.34,0l10.02,1.91a1,1,0,0,1,.81.98ZM60,33a7.013,7.013,0,0,1-6,6.93V24.07A7.013,7.013,0,0,1,60,31Z" style="fill:#243463"/><path d="M47,31H17a1,1,0,0,0,0,2H47a1,1,0,0,0,0-2Z" style="fill:#243463"/><path d="M47,25H17a1,1,0,0,0,0,2H47a1,1,0,0,0,0-2Z" style="fill:#243463"/><path d="M47,37H17a1,1,0,0,0,0,2H47a1,1,0,0,0,0-2Z" style="fill:#243463"/></g></svg>