<svg height="32" width="32" xmlns="http://www.w3.org/2000/svg"><g fill="#243463"><path d="m20.5 16c-2.5 0-4.5-2-4.5-4.5s2-4.5 4.5-4.5 4.5 2 4.5 4.5-2 4.5-4.5 4.5z"/><path d="m14 11.5c0-3.6 2.9-6.5 6.5-6.5 1.1 0 2.1.3 3 .8.4-.8.3-1.7-.4-2.3l-2.1-2.1c-.8-.8-2-.8-2.8 0l-1 1-.1-.1c-.4-.4-1-.4-1.4 0l-7.1 7c-.9.9-1.1 2.3-.6 3.4l-1.6 1.6c-.8.8-.8 2 0 2.8l1.4 1.4c.4.4.9.6 1.4.6s1-.2 1.4-.6l1.6-1.6c.4.2.8.3 1.3.3.8 0 1.5-.3 2.1-.9l.2-.2c-1.1-1.2-1.8-2.8-1.8-4.6z"/><path d="m14.1 24h-9.1c-1.7 0-3 1.3-3 3v2c0 .6.4 1 1 1h15.9z"/><path d="m27 11.5c0 2.4-1.3 4.5-3.2 5.6.2.6.4 1.2.4 1.9 0 2.8-2.3 5-5.2 5h-2.3l4.6 5.8c5-1.1 8.7-5.5 8.7-10.8 0-2.8-1.1-5.5-3-7.5z"/></g></svg>