<svg width="14" height="14" xmlns="http://www.w3.org/2000/svg">

 <g>
  <title>Layer 1</title>
  <path fill="#243463" id="svg_1" d="m10.09338,1.00083a0.23986,0.23986 0 0 0 -0.02998,0.0075a0.23986,0.23986 0 0 0 -0.11992,0.41221l0.30729,0.30729l-1.49896,1.49896l1.78376,1.78376l1.49896,-1.49896l0.30729,0.30729a0.24378,0.24378 0 1 0 0.34476,-0.34477l-2.39834,-2.39833a0.23986,0.23986 0 0 0 -0.19486,-0.07495zm-2.87801,1.439a0.23986,0.23986 0 0 0 -0.02997,0.0075a0.23986,0.23986 0 0 0 -0.11992,0.41221l0.55461,0.55462l-5.10395,5.10395c-0.04797,0.04797 -0.07495,0.13791 -0.07495,0.20986l0.41971,1.69382l-1.61888,1.61887l0,0.95934l2.11353,-2.11354l1.64886,0.41222l0.05246,0c0.07195,0 0.11692,-0.02698 0.16489,-0.07495l5.10396,-5.10396l0.5771,0.5771a0.24378,0.24378 0 0 0 0.34476,-0.34476l-3.83734,-3.83733a0.23986,0.23986 0 0 0 -0.19487,-0.07495zm0.23984,1.80624l0.88438,0.91437c0.09594,0.09593 0.09594,0.23384 0,0.32977c-0.04796,0.04797 -0.11691,0.07495 -0.16488,0.07495c-0.04797,0 -0.12441,-0.02698 -0.17238,-0.07495l-0.88439,-0.88439l0,-0.02249l0.33727,-0.33726zm-0.95934,0.98182l0.02249,0l0.40472,0.41222c0.09593,0.09593 0.09593,0.23383 0,0.32977c-0.04797,0.04797 -0.11692,0.07495 -0.16489,0.07495c-0.04797,0 -0.11692,-0.02698 -0.16488,-0.07495l-0.41222,-0.40472l0.31478,-0.33727zm-0.95933,0.95934l0.02248,0l0.88439,0.89188c0.09593,0.09593 0.09593,0.23384 0,0.32977c-0.04797,0.04797 -0.11692,0.07495 -0.16489,0.07495c-0.04796,0 -0.11691,-0.02698 -0.16488,-0.07495l-0.91437,-0.8619l0,-0.02249l0.33727,-0.33727l0,0.00001zm-0.95933,0.95933l0.02248,0l0.40472,0.41221c0.09593,0.09593 0.09593,0.23384 0,0.32978c-0.04797,0.04797 -0.11692,0.07495 -0.16489,0.07495c-0.04796,0 -0.11692,-0.02698 -0.16488,-0.07495l-0.41222,-0.40472l0.31479,-0.33727zm-0.95934,0.95934l0.02249,0l0.88438,0.89188c0.09593,0.09593 0.09593,0.23383 0,0.32977c-0.04797,0.04797 -0.11692,0.07495 -0.16488,0.07495c-0.04797,0 -0.11692,-0.02698 -0.16489,-0.07495l-0.91436,-0.8619l0,-0.02248l0.33726,-0.33727z"/>
  <ellipse stroke-width="0" ry="2.78846" rx="2.78846" id="svg_13" cy="10.50961" cx="10.58173" stroke="#000" fill="#94baf9"/>
  <text font-style="normal" font-weight="bold" transform="matrix(0.164557, 0, 0, 0.164557, 2.04701, -3.28688)" xml:space="preserve" text-anchor="start" font-family="'Open Sans'" font-size="24" stroke-width="0" id="svg_14" y="92.61101" x="44.92391" stroke="#000" fill="#ffffff">1</text>
 </g>
</svg>